<?xml version="1.0" standalone="no"?>
<!DOCTYPE svg PUBLIC "-//W3C//DTD SVG 20010904//EN"
 "http://www.w3.org/TR/2001/REC-SVG-20010904/DTD/svg10.dtd">
<svg version="1.0" xmlns="http://www.w3.org/2000/svg"
 width="670.000000pt" height="719.000000pt" viewBox="0 0 670.000000 719.000000"
 preserveAspectRatio="xMidYMid meet">

<g transform="translate(0.000000,719.000000) scale(0.100000,-0.100000)"
fill="#2f4f4f" stroke="none">
<path d="M3093 6689 c-151 -19 -256 -62 -401 -162 -159 -109 -258 -222 -350
-396 l-48 -90 -80 82 c-44 45 -136 142 -203 215 l-123 132 -371 0 c-353 0
-373 -1 -413 -20 -43 -21 -54 -40 -54 -95 0 -55 11 -74 54 -95 40 -19 61 -20
369 -20 l327 0 38 -42 c373 -409 401 -448 402 -563 0 -81 -17 -121 -83 -196
-97 -111 -181 -224 -263 -352 -96 -150 -150 -263 -169 -352 -24 -110 -34 -526
-44 -1718 -9 -1260 -12 -1211 70 -1374 28 -57 73 -131 99 -166 117 -154 318
-286 525 -343 53 -15 105 -34 115 -43 11 -9 36 -74 59 -154 101 -341 272 -554
491 -614 93 -25 417 -25 510 0 219 60 390 273 491 614 23 80 48 145 59 154 10
9 62 28 115 43 207 57 408 189 525 343 26 35 71 109 99 166 82 163 79 114 70
1374 -10 1192 -20 1608 -44 1718 -35 161 -218 460 -432 704 -66 75 -83 115
-83 196 1 115 29 154 402 563 l38 42 327 0 c308 0 329 1 369 20 43 21 54 40
54 95 0 55 -11 74 -54 95 -40 19 -60 20 -413 20 l-371 0 -123 -132 c-67 -73
-159 -170 -203 -215 l-80 -82 -48 90 c-26 50 -68 119 -92 154 -112 155 -366
338 -530 380 -132 33 -377 45 -533 24z m353 -230 c219 -38 445 -182 540 -342
85 -144 124 -283 124 -439 0 -242 -91 -454 -263 -614 -157 -146 -294 -194
-552 -194 -258 0 -395 48 -552 194 -172 160 -263 372 -263 614 0 156 39 295
124 439 93 157 319 302 531 342 70 12 240 13 311 0z m-1084 -1293 c42 -81 241
-278 366 -364 118 -81 184 -108 328 -132 215 -37 502 -18 653 44 153 62 451
322 519 452 18 34 39 64 47 67 32 13 159 -147 275 -347 88 -154 97 -197 110
-575 16 -439 18 -2346 2 -2446 -15 -97 -60 -193 -134 -287 -59 -75 -138 -131
-256 -184 -42 -19 -84 -39 -93 -44 -9 -5 -33 -12 -53 -15 l-36 -7 0 98 c0 160
-29 822 -40 911 -28 223 -85 341 -233 480 -141 130 -289 183 -522 183 -164 0
-252 -18 -371 -76 -119 -58 -252 -193 -318 -322 -23 -46 -54 -168 -66 -265
-11 -89 -40 -751 -40 -911 l0 -98 -36 7 c-20 3 -44 10 -53 15 -9 5 -51 25 -93
44 -118 53 -197 109 -256 184 -74 94 -119 190 -134 287 -16 100 -14 2007 2
2446 13 378 22 421 110 575 116 200 243 360 275 347 8 -3 29 -33 47 -67z
m1145 -2420 c66 -21 137 -77 197 -157 63 -84 83 -125 106 -217 32 -131 40
-344 29 -815 -10 -451 -18 -575 -45 -654 -35 -104 -111 -223 -173 -272 -167
-133 -485 -133 -652 0 -62 49 -138 168 -173 272 -27 79 -35 203 -45 654 -11
471 -3 684 29 815 23 92 43 133 106 217 80 107 158 156 279 175 63 9 290 -3
342 -18z"/>
</g>
</svg>
