<svg width="670" height="719" xmlns="http://www.w3.org/2000/svg" preserveAspectRatio="xMidYMid meet">

 <g>
  <title>background</title>
  <rect fill="none" id="canvas_background" height="402" width="582" y="-1" x="-1"/>
 </g>
 <g>
  <title>Layer 1</title>
  <g id="svg_1" fill="#000000" transform="translate(0,719) scale(0.10000000149011612,-0.10000000149011612) ">
   <path id="svg_2" d="m3093,6689c-151,-19 -256,-62 -401,-162c-159,-109 -258,-222 -350,-396l-48,-90l-80,82c-44,45 -136,142 -203,215l-123,132l-371,0c-353,0 -373,-1 -413,-20c-43,-21 -54,-40 -54,-95c0,-55 11,-74 54,-95c40,-19 61,-20 369,-20l327,0l38,-42c373,-409 401,-448 402,-563c0,-81 -17,-121 -83,-196c-97,-111 -181,-224 -263,-352c-96,-150 -150,-263 -169,-352c-24,-110 -34,-526 -44,-1718c-9,-1260 -12,-1211 70,-1374c28,-57 73,-131 99,-166c117,-154 318,-286 525,-343c53,-15 105,-34 115,-43c11,-9 36,-74 59,-154c101,-341 272,-554 491,-614c93,-25 417,-25 510,0c219,60 390,273 491,614c23,80 48,145 59,154c10,9 62,28 115,43c207,57 408,189 525,343c26,35 71,109 99,166c82,163 79,114 70,1374c-10,1192 -20,1608 -44,1718c-35,161 -218,460 -432,704c-66,75 -83,115 -83,196c1,115 29,154 402,563l38,42l327,0c308,0 329,1 369,20c43,21 54,40 54,95c0,55 -11,74 -54,95c-40,19 -60,20 -413,20l-371,0l-123,-132c-67,-73 -159,-170 -203,-215l-80,-82l-48,90c-26,50 -68,119 -92,154c-112,155 -366,338 -530,380c-132,33 -377,45 -533,24zm353,-230c219,-38 445,-182 540,-342c85,-144 124,-283 124,-439c0,-242 -91,-454 -263,-614c-157,-146 -294,-194 -552,-194c-258,0 -395,48 -552,194c-172,160 -263,372 -263,614c0,156 39,295 124,439c93,157 319,302 531,342c70,12 240,13 311,0zm-1084,-1293c42,-81 241,-278 366,-364c118,-81 184,-108 328,-132c215,-37 502,-18 653,44c153,62 451,322 519,452c18,34 39,64 47,67c32,13 159,-147 275,-347c88,-154 97,-197 110,-575c16,-439 18,-2346 2,-2446c-15,-97 -60,-193 -134,-287c-59,-75 -138,-131 -256,-184c-42,-19 -84,-39 -93,-44c-9,-5 -33,-12 -53,-15l-36,-7l0,98c0,160 -29,822 -40,911c-28,223 -85,341 -233,480c-141,130 -289,183 -522,183c-164,0 -252,-18 -371,-76c-119,-58 -252,-193 -318,-322c-23,-46 -54,-168 -66,-265c-11,-89 -40,-751 -40,-911l0,-98l-36,7c-20,3 -44,10 -53,15c-9,5 -51,25 -93,44c-118,53 -197,109 -256,184c-74,94 -119,190 -134,287c-16,100 -14,2007 2,2446c13,378 22,421 110,575c116,200 243,360 275,347c8,-3 29,-33 47,-67zm1145,-2420c66,-21 137,-77 197,-157c63,-84 83,-125 106,-217c32,-131 40,-344 29,-815c-10,-451 -18,-575 -45,-654c-35,-104 -111,-223 -173,-272c-167,-133 -485,-133 -652,0c-62,49 -138,168 -173,272c-27,79 -35,203 -45,654c-11,471 -3,684 29,815c23,92 43,133 106,217c80,107 158,156 279,175c63,9 290,-3 342,-18z"/>
  </g>
  <ellipse stroke="#000" ry="82.015631" rx="82.410889" id="svg_3" cy="151.97595" cx="329.445907" stroke-width="1.5" fill="#f8ca00"/>
 </g>
</svg>